<svg width="6093" height="1163" viewBox="0 0 6093 1163" fill="none" xmlns="http://www.w3.org/2000/svg">
<path d="M1810.5 245H1740C1647 245 1575 312.5 1575 431V848H1378.5V72.5H1573.5V156.5C1612.5 99.5 1674 65 1758 65H1810.5V245ZM2021.29 630.5C2021.29 491 2115.79 411.5 2280.79 399.5L2508.79 383V353C2508.79 276.5 2457.79 230 2366.29 230C2295.79 230 2229.79 252.5 2160.79 299L2078.29 159.5C2168.29 93.5 2271.79 56 2390.29 56C2576.29 56 2699.29 164 2699.29 329V633.5C2699.29 662 2714.29 678.5 2742.79 678.5H2783.29V848H2691.79C2616.79 848 2559.79 813.5 2532.79 756.5C2478.79 825.5 2393.29 867.5 2289.79 867.5C2135.29 867.5 2021.29 767 2021.29 630.5ZM2208.79 629C2208.79 683 2259.79 717.5 2333.29 717.5C2430.79 717.5 2508.79 654.5 2508.79 576.5V527L2307.79 545C2241.79 551 2208.79 578 2208.79 629ZM3889.02 72.5V878C3889.02 1049 3773.52 1163 3596.52 1163H3379.02V998H3551.52C3644.52 998 3692.52 950 3692.52 863V768.5C3625.02 822.5 3541.02 855.5 3449.52 855.5C3223.02 855.5 3041.52 677 3041.52 453.5C3041.52 230 3224.52 51.5 3449.52 51.5C3541.02 51.5 3626.52 84.5 3694.02 140V72.5H3889.02ZM3236.52 453.5C3236.52 581 3338.52 683 3466.02 683C3595.02 683 3695.52 581 3695.52 453.5C3695.52 324.5 3593.52 222.5 3466.02 222.5C3340.02 222.5 3236.52 326 3236.52 453.5ZM5058.6 461C5058.6 686 4868.1 869 4632.6 869C4398.6 869 4206.6 686 4206.6 461C4206.6 236 4398.6 53 4632.6 53C4868.1 53 5058.6 234.5 5058.6 461ZM4863.6 461C4863.6 330.5 4761.6 227 4632.6 227C4505.1 227 4401.6 330.5 4401.6 461C4401.6 591.5 4505.1 695 4632.6 695C4761.6 695 4863.6 591.5 4863.6 461ZM6092.2 354.5V848H5895.7V393.5C5895.7 293 5831.2 227 5735.2 227C5640.7 227 5573.2 290 5573.2 393.5V848H5376.7V72.5H5573.2V138.5C5627.2 83 5702.2 51.5 5786.2 51.5C5967.7 51.5 6092.2 185 6092.2 354.5Z" fill="white"/>
<path fill-rule="evenodd" clip-rule="evenodd" d="M525.596 240.912H349.208L0 845.623H176.388L525.596 240.912ZM576.502 152.718L664.696 0H488.308L400.114 152.718H576.502ZM976.616 845.623H1153L714.629 86.2482L626.435 238.966L976.616 845.623ZM470.799 508.087L665.668 845.623H842.056L558.993 355.369L470.799 508.087ZM531.432 845.623L403.681 624.49L315.487 777.208L355.045 845.623H531.432Z" fill="url(#paint0_linear_961_931)"/>
<defs>
<linearGradient id="paint0_linear_961_931" x1="0" y1="42281.1" x2="115300" y2="42281.1" gradientUnits="userSpaceOnUse">
<stop stop-color="#00CC8F"/>
<stop offset="1" stop-color="#00CC8F"/>
</linearGradient>
</defs>
</svg>
