<svg width="201" height="201" viewBox="0 0 201 201" fill="none" xmlns="http://www.w3.org/2000/svg">
<path d="M180.447 66.4924C178.091 64.1373 174.896 62.8143 171.565 62.8143C168.234 62.8143 165.039 64.1373 162.684 66.4924L100.499 128.677L38.3147 66.4924C35.9454 64.2041 32.7721 62.9378 29.4783 62.9665C26.1844 62.9951 23.0336 64.3163 20.7044 66.6455C18.3752 68.9746 17.054 72.1255 17.0254 75.4193C16.9968 78.7132 18.263 81.8865 20.5514 84.2558L91.6174 155.322C93.9732 157.677 97.168 159 100.499 159C103.83 159 107.025 157.677 109.381 155.322L180.447 84.2558C182.802 81.9 184.125 78.7053 184.125 75.3741C184.125 72.043 182.802 68.8483 180.447 66.4924Z" fill="white"/>
</svg>
