<svg width="24" height="24" viewBox="0 0 24 24" fill="none" xmlns="http://www.w3.org/2000/svg">
<g clip-path="url(#clip0_613_426)">
<path d="M7.02423 2.31031C7.77519 2.5647 8.4896 2.91636 9.14923 3.35631C10.0808 3.11822 11.0387 2.9986 12.0002 3.00031C12.9932 3.00031 13.9512 3.12431 14.8492 3.35531C15.5086 2.91578 16.2227 2.56446 16.9732 2.31031C17.6702 2.07331 18.6632 1.68931 19.2532 2.34231C19.6532 2.78631 19.7532 3.53031 19.8242 4.09831C19.9042 4.73231 19.9232 5.55831 19.7132 6.37831C20.5162 7.41531 21.0002 8.65231 21.0002 10.0003C21.0002 12.0423 19.8942 13.8153 18.2572 15.0433C17.4694 15.6268 16.5956 16.0843 15.6672 16.3993C15.8812 16.8893 16.0002 17.4313 16.0002 18.0003V21.0003C16.0002 21.2655 15.8949 21.5199 15.7073 21.7074C15.5198 21.8949 15.2654 22.0003 15.0002 22.0003H9.00023C8.73501 22.0003 8.48066 21.8949 8.29312 21.7074C8.10559 21.5199 8.00023 21.2655 8.00023 21.0003V20.0093C7.04523 20.1263 6.24423 20.0223 5.56323 19.7333C4.85123 19.4313 4.35523 18.9633 3.98223 18.5153C3.62823 18.0913 3.24223 17.1353 2.68423 16.9493C2.5596 16.9078 2.44437 16.8422 2.34512 16.7561C2.24586 16.6701 2.16452 16.5654 2.10574 16.4479C1.98703 16.2107 1.96742 15.936 2.05123 15.6843C2.13504 15.4326 2.3154 15.2245 2.55263 15.1058C2.78986 14.9871 3.06454 14.9675 3.31623 15.0513C3.98223 15.2733 4.41623 15.7533 4.71323 16.1393C5.19323 16.7593 5.58323 17.5693 6.34323 17.8923C6.65623 18.0253 7.11523 18.1123 7.83323 18.0143L8.00023 17.9803C8.00214 17.4361 8.11547 16.898 8.33323 16.3993C7.40482 16.0843 6.53104 15.6269 5.74323 15.0433C4.10623 13.8153 3.00023 12.0433 3.00023 10.0003C3.00023 8.65431 3.48323 7.41831 4.28423 6.38231C4.07423 5.56231 4.09223 4.73431 4.17223 4.09931L4.17723 4.06131C4.25023 3.47931 4.33523 2.79431 4.74323 2.34231C5.33323 1.68931 6.32723 2.07431 7.02323 2.31131L7.02423 2.31031Z" fill="white"/>
</g>
<defs>
<clipPath id="clip0_613_426">
<rect width="24" height="24" fill="white"/>
</clipPath>
</defs>
</svg>
