<svg width="24" height="24" viewBox="0 0 24 24" fill="none" xmlns="http://www.w3.org/2000/svg">
<path d="M20.45 19.6463L14.7313 10.665L20.33 4.50656C20.5265 4.28511 20.6277 3.99515 20.6118 3.69955C20.5959 3.40394 20.4641 3.12652 20.2451 2.92742C20.026 2.72833 19.7373 2.62361 19.4415 2.63596C19.1457 2.64832 18.8667 2.77676 18.665 2.99344L13.4834 8.69719L9.95001 3.14625C9.84846 2.98659 9.70829 2.85512 9.54245 2.76401C9.37661 2.6729 9.19048 2.62509 9.00126 2.625H4.50126C4.29973 2.62509 4.10193 2.67932 3.92853 2.78201C3.75513 2.88469 3.6125 3.03208 3.51554 3.20874C3.41858 3.38541 3.37086 3.58488 3.37736 3.78631C3.38387 3.98773 3.44436 4.1837 3.55251 4.35375L9.27126 13.335L3.66876 19.4934C3.56732 19.6024 3.48852 19.7304 3.43692 19.8701C3.38532 20.0097 3.36195 20.1582 3.36817 20.3069C3.37438 20.4557 3.41006 20.6017 3.47312 20.7366C3.53619 20.8714 3.6254 20.9924 3.73557 21.0925C3.84574 21.1927 3.97469 21.2699 4.11495 21.3198C4.2552 21.3698 4.40397 21.3914 4.55262 21.3834C4.70128 21.3754 4.84687 21.3379 4.98096 21.2733C5.11505 21.2086 5.23496 21.1179 5.33376 21.0066L10.5191 15.3028L14.0525 20.8538C14.1541 21.0134 14.2942 21.1449 14.4601 21.236C14.6259 21.3271 14.812 21.3749 15.0013 21.375H19.5013C19.7028 21.3749 19.9006 21.3207 20.074 21.218C20.2474 21.1153 20.39 20.9679 20.487 20.7913C20.5839 20.6146 20.6317 20.4151 20.6252 20.2137C20.6187 20.0123 20.5582 19.8163 20.45 19.6463ZM15.6191 19.125L6.55063 4.875H8.38345L17.4519 19.125H15.6191Z" fill="white"/>
</svg>
